<svg height="159.111457" viewBox="0 0 62.724665 15.855481" width="628.490254" xmlns="http://www.w3.org/2000/svg" xmlns:xlink="http://www.w3.org/1999/xlink"><symbol id="a" overflow="visible"/><symbol id="b" overflow="visible"/><symbol id="c" overflow="visible"/><symbol id="d" overflow="visible"/><symbol id="e" overflow="visible"/><symbol id="f" overflow="visible"/><symbol id="g" overflow="visible"/><symbol id="h" overflow="visible"/><g transform="matrix(.35277777 0 0 .35277777 -757.373527 -376.705967)"><use fill="#073859" height="100%" width="100%" x="71.138298" xlink:href="#a" y="96.321404"/><use fill="#073859" height="100%" width="100%" x="129.8183" xlink:href="#a" y="96.321404"/><use fill="#073859" height="100%" width="100%" x="159.1463" xlink:href="#a" y="96.321404"/><use fill="#073859" height="100%" width="100%" x="141.81662" xlink:href="#a" y="123.45964"/><use fill="#073859" height="100%" width="100%" x="183.12062" xlink:href="#a" y="123.45964"/><use fill="#0fb0dc" height="100%" width="100%" x="141.8183" xlink:href="#b" y="157.78156"/></g><use fill="#fff" height="100%" transform="matrix(.35277779 0 0 .35277779 -736.000667 -353.947875)" width="100%" x="123.9363" xlink:href="#c" y="386.39661"/><use fill="#009c7d" height="100%" transform="matrix(.35277778 0 0 .35277778 -488.02013 -136.53639)" width="100%" x="186.1642" xlink:href="#d" y="753.54327"/><use fill="#009c7d" height="100%" transform="matrix(.35277778 0 0 .35277778 -488.02013 -136.53639)" width="100%" x="224.3082" xlink:href="#d" y="753.54327"/><use fill="#009c7d" height="100%" transform="matrix(.35277778 0 0 .35277778 -488.02013 -136.53639)" width="100%" x="108.1002" xlink:href="#d" y="775.9433"/><use fill="#009c7d" height="100%" transform="matrix(.35277778 0 0 .35277778 -488.02013 -136.53639)" width="100%" x="176.3082" xlink:href="#d" y="775.9433"/><use fill="#009c7d" height="100%" transform="matrix(.35277778 0 0 .35277778 -488.02013 -136.53639)" width="100%" x="229.4442" xlink:href="#d" y="775.9433"/><use fill="#fff" height="100%" transform="matrix(.35277776 0 0 .35277776 -119.14041 -39.57339)" width="100%" x="476.539" xlink:href="#e" y="465.8103"/><use fill="#4c5757" height="100%" transform="matrix(.35277778 0 0 .35277778 -45.22028 -37.95158)" width="100%" x="552.75769" xlink:href="#f" y="754.40802"/><use fill="#fff" height="100%" transform="matrix(.35277778 0 0 .35277778 -34.81059 -40.97204)" width="100%" x="365.3136" xlink:href="#g" y="761.56128"/><use height="100%" transform="matrix(.35277779 0 0 .35277779 -8.18975 23.3695)" width="100%" x="95.2547" xlink:href="#h" y="460.0199"/><use height="100%" transform="matrix(.35277779 0 0 .35277779 -8.18975 23.3695)" width="100%" x="102.7297" xlink:href="#h" y="460.0199"/><path d="m779.15042 407.11355c0-.0288 0-12.24862 0-12.24862s-10.83738-10.02393-13.70197-12.69685c-3.29131-3.05065-6.27796-4.67763-6.27796-4.67763h17.21202s.47443 1.64674 3.62823 4.67763c.55436.53287 5.75239 5.45544 5.75239 5.45544s4.64153-4.44601 5.69952-5.43997c3.15251-3.04636 3.66517-4.6931 3.66517-4.6931h17.19913s-2.98921 1.64674-6.26718 4.67763c-.92737.86719-13.70629 12.69685-13.70629 12.69685v12.24862c0 3.04379 1.22732 4.67762 1.22732 4.67762h-15.65556s1.22518-1.63383 1.22518-4.67762zm80.19429 0c0-.77481 0-16.7853 0-24.94547 0-3.03089-1.21915-4.67763-1.21915-4.67763h38.4601v8.4567s-1.64803-1.21613-4.69352-1.21613c-2.68539 0-19.31987 0-19.31987 0v7.61354h14.76557c3.03133 0 4.69268-.80404 4.69268-.80404v8.01449s-1.66135-.80917-4.69268-.80917c-.63299 0-14.76557 0-14.76557 0v8.36771c0 3.04379 1.20324 4.67762 1.20324 4.67762h-15.64995s1.21915-1.63383 1.21915-4.67762zm-30.76231-13.92587v-9.30325h6.29729c4.83233 0 6.77257 1.59086 6.77257 4.56848 0 2.92216-2.67682 4.73477-7.85077 4.73477zm-14.43466 18.60349h15.65296s-1.2183-1.63383-1.2183-4.67762c0-3.0498 0-7.54351 0-7.54351h9.21173c11.94568 0 16.28638-5.94103 16.28638-11.26024 0-5.53149-3.39188-10.81935-15.34356-10.81935h-24.58921s1.21827 1.64674 1.21827 4.67763v24.94547c0 3.04379-1.21827 4.67762-1.21827 4.67762z" fill="#0063c2" fill-rule="evenodd" stroke-width=".264583" transform="matrix(.45453558 0 0 .45453558 -344.93771 -171.45055)"/></svg>